# xmcd
#
# Track frame offsets:
#	150
#	13665
#	28898
#	46700
#	58279
#	68170
#	89269
#	103115
#	115858
#	128697
#	142880
#	157911
#	174392
#	193585
#	214183
#	227955
#
# Disc length: 3367 seconds
#
# Revision: 1
# Processed by: cddbd v1.5.1PL0 Copyright (c) Steve Scherf et al.
# Submitted via: audiograbber 1.80
#
DISCID=d90d2510
DTITLE=Big L - The Big Picture
DYEAR=1900
DGENRE=
TTITLE0=The Big Picture (Intro)
TTITLE1=Ebonics
TTITLE2=Size 'Em Up
TTITLE3=Deadly Combination feat. 2 Pac
TTITLE4='98 Freestyle
TTITLE5=Holdin' It Down feat. Stan Spit, A.G. and Miss Jones
TTITLE6=The Heist
TTITLE7=The Enemy feat. Fat Joe
TTITLE8=Fall Back feat. Kool G Rap
TTITLE9=Flamboyant
TTITLE10=Casulties Of A Dice Game
TTITLE11=Platinum Plus feat. Big Daddy Kane
TTITLE12=Who You Slidin' Wit' feat. Stan Spit
TTITLE13=Games feat. Sadat X and Guru
TTITLE14=The Heist Revisited
TTITLE15=The Triboro feat. OC, Fat Joe and Remy Martin
EXTD=
EXTT0=
EXTT1=
EXTT2=
EXTT3=
EXTT4=
EXTT5=
EXTT6=
EXTT7=
EXTT8=
EXTT9=
EXTT10=
EXTT11=
EXTT12=
EXTT13=
EXTT14=
EXTT15=
PLAYORDER=
